<?xml version="1.0" standalone="no"?>
<!DOCTYPE svg PUBLIC "-//W3C//DTD SVG 20010904//EN"
 "http://www.w3.org/TR/2001/REC-SVG-20010904/DTD/svg10.dtd">
<svg version="1.0" xmlns="http://www.w3.org/2000/svg"
 width="512.000000pt" height="512.000000pt" viewBox="0 0 512.000000 512.000000"
 preserveAspectRatio="xMidYMid meet">

<g transform="translate(0.000000,512.000000) scale(0.100000,-0.100000)"
fill="#FFFFFF" stroke="none">
<path d="M2255 4946 c-94 -41 -124 -169 -58 -247 45 -53 73 -59 268 -59 l175
0 0 -83 0 -83 -98 -11 c-456 -55 -903 -263 -1220 -570 -63 -61 -83 -87 -92
-120 -28 -111 69 -216 183 -197 29 4 62 27 145 101 516 457 1190 598 1831 384
297 -99 600 -301 796 -530 551 -645 605 -1545 136 -2242 -301 -448 -787 -739
-1333 -798 -510 -56 -1026 115 -1430 472 -83 74 -116 97 -145 101 -114 19
-211 -86 -183 -196 21 -81 267 -290 493 -419 947 -543 2147 -298 2803 573 214
285 352 612 411 979 23 144 23 494 0 638 -100 619 -435 1143 -945 1481 -286
190 -638 317 -954 346 l-78 7 0 83 0 83 189 3 c173 3 192 5 217 24 53 39 69
71 69 134 0 63 -16 95 -69 134 -27 21 -40 21 -554 23 -423 2 -533 0 -557 -11z"/>
<path d="M4047 4626 c-51 -19 -73 -40 -93 -92 -18 -48 -15 -101 10 -139 22
-33 415 -379 453 -399 69 -35 156 -11 200 55 22 33 25 47 21 99 -5 73 2 65
-260 295 -224 198 -247 211 -331 181z"/>
<path d="M2610 3830 c-376 -52 -707 -230 -955 -513 -176 -200 -297 -450 -352
-732 -27 -136 -24 -415 6 -555 79 -374 272 -685 564 -911 517 -400 1231 -423
1777 -58 114 77 280 235 365 348 319 424 392 985 194 1481 -45 112 -89 150
-172 150 -79 0 -157 -75 -157 -152 0 -21 11 -65 25 -98 194 -462 81 -999 -283
-1341 -473 -445 -1206 -434 -1667 24 -373 372 -460 931 -218 1400 236 456 746
713 1253 632 52 -9 149 -34 215 -56 130 -45 176 -47 224 -11 90 66 95 190 10
255 -43 32 -211 91 -337 117 -111 24 -385 35 -492 20z"/>
<path d="M3750 3479 c-14 -5 -192 -177 -396 -381 l-372 -370 -53 17 c-73 24
-196 23 -271 -4 -95 -33 -195 -115 -246 -201 -53 -91 -70 -250 -37 -350 l17
-52 -65 -67 c-36 -36 -71 -79 -76 -94 -49 -129 77 -255 206 -206 15 5 58 40
94 76 l67 65 52 -17 c158 -52 356 5 467 135 98 116 134 283 89 419 l-18 53
375 377 c405 405 399 398 383 486 -17 91 -127 149 -216 114z m-915 -1039 c25
0 74 -51 84 -86 26 -93 -60 -179 -152 -153 -91 25 -121 144 -53 208 25 24 73
42 94 35 8 -2 20 -4 27 -4z"/>
<path d="M255 3186 c-67 -29 -105 -106 -91 -181 9 -47 59 -102 104 -115 25 -8
184 -10 474 -8 423 3 437 4 464 24 53 39 69 71 69 134 0 63 -16 95 -69 134
-27 20 -40 21 -474 23 -356 2 -453 0 -477 -11z"/>
<path d="M376 2457 c-109 -61 -106 -221 5 -277 35 -19 60 -20 339 -20 279 0
304 1 339 20 113 57 113 223 0 280 -36 19 -59 20 -341 20 -295 0 -304 -1 -342
-23z"/>
<path d="M530 1749 c-89 -36 -129 -153 -77 -229 50 -74 51 -75 322 -78 228 -3
246 -2 283 17 113 58 114 224 1 281 -35 18 -58 20 -271 19 -130 0 -244 -5
-258 -10z"/>
</g>
</svg>
